<?xml version="1.0" encoding="UTF-8"?>
<svg version="1.1" xmlns="http://www.w3.org/2000/svg" width="225" height="264">
<path d="M0 0 C1.34669792 0.63923935 2.68148312 1.30448906 4 2 C4.99 2.33 5.98 2.66 7 3 C7.598125 3.45375 8.19625 3.9075 8.8125 4.375 C12.26185923 6.93738115 15.93426759 8.64475586 20 10 C20.598125 10.45375 21.19625 10.9075 21.8125 11.375 C25.26185923 13.93738115 28.93426759 15.64475586 33 17 C33.598125 17.45375 34.19625 17.9075 34.8125 18.375 C38.89518325 21.40785041 42.96582408 23.25968001 48 24 C47.67 24.66 47.34 25.32 47 26 C48.65 26.66 50.3 27.32 52 28 C52 28.66 52 29.32 52 30 C53.98 30 55.96 30 58 30 C58 30.66 58 31.32 58 32 C60.31 32.99 62.62 33.98 65 35 C65 35.66 65 36.32 65 37 C66.423125 36.938125 66.423125 36.938125 67.875 36.875 C71 37 71 37 73 39 C77.72737256 43.28418138 84.44724345 48 91 48 C91.2475 48.61875 91.495 49.2375 91.75 49.875 C92.81460222 52.14291141 92.81460222 52.14291141 95 52.9375 C97 54 97 54 98.0859375 55.97265625 C99.3487915 60.15518553 99.47835068 64.14901855 99.625 68.5 C99.67974487 69.95116211 99.67974487 69.95116211 99.7355957 71.43164062 C100.035552 80.61999749 100.1324948 89.81287933 100.17523193 99.00561523 C100.1833691 100.66009215 100.19444706 102.31455738 100.20855713 103.96899414 C100.22652126 106.32318419 100.23045294 108.67699908 100.23046875 111.03125 C100.23760391 111.7315332 100.24473907 112.43181641 100.25209045 113.15332031 C100.23086924 117.82890742 99.44313732 121.60445467 98 126 C97.34 125.67 96.68 125.34 96 125 C95.5875 125.969375 95.175 126.93875 94.75 127.9375 C93 131 93 131 91.15625 131.5625 C90.4446875 131.706875 89.733125 131.85125 89 132 C87.56637928 132.65140796 86.14898188 133.3396927 84.75 134.0625 C84.04359375 134.42472656 83.3371875 134.78695312 82.609375 135.16015625 C82.07828125 135.43730469 81.5471875 135.71445313 81 136 C81 136.66 81 137.32 81 138 C80.319375 138.0825 79.63875 138.165 78.9375 138.25 C75.1253093 139.22332528 72.35929671 140.95807455 69 143 C69 143.66 69 144.32 69 145 C68.45601562 145.11214844 67.91203125 145.22429687 67.3515625 145.33984375 C63.52415839 146.41431434 60.04624252 148.24487452 56.4609375 149.94140625 C54 151 54 151 52 151 C52 151.66 52 152.32 52 153 C41 158.5 41 158.5 30 164 C30 164.66 30 165.32 30 166 C29.32453125 166.25394531 28.6490625 166.50789062 27.953125 166.76953125 C27.06109375 167.11371094 26.1690625 167.45789063 25.25 167.8125 C24.36828125 168.14894531 23.4865625 168.48539063 22.578125 168.83203125 C20.05437598 169.97536603 18.14330044 171.26030808 16 173 C12.22222222 175.88888889 12.22222222 175.88888889 10 177 C10.00444122 177.64257751 10.00888245 178.28515503 10.01345825 178.94720459 C10.05767869 185.63047056 10.08786112 192.31369502 10.10986328 198.99707031 C10.11992561 201.49187915 10.13357679 203.98667618 10.15087891 206.48144531 C10.17511668 210.06578484 10.18648082 213.64996853 10.1953125 217.234375 C10.20563507 218.35116638 10.21595764 219.46795776 10.22659302 220.61859131 C10.22674408 221.65936829 10.22689514 222.70014526 10.22705078 223.77246094 C10.231492 224.68735291 10.23593323 225.60224487 10.24050903 226.54486084 C9.98635175 229.13932269 9.31398098 230.76969393 8 233 C7.34 233 6.68 233 6 233 C5.195625 233.969375 4.39125 234.93875 3.5625 235.9375 C0.93219074 239.08104033 -0.09721926 239.70980757 -4.0234375 240.30859375 C-12.1266545 240.75279003 -17.95144891 237.70360815 -25 234 C-26.36411836 233.30767682 -27.72871768 232.61630065 -29.09375 231.92578125 C-30.45936795 231.223362 -31.82397188 230.51896744 -33.1875 229.8125 C-33.83549561 229.47992188 -34.48349121 229.14734375 -35.15112305 228.8046875 C-38.33970953 227.10932803 -39.95646669 226.06529996 -42 223 C-42.24050903 219.90583801 -42.24050903 219.90583801 -42.22705078 216.05004883 C-42.22734283 215.34735367 -42.22763489 214.64465851 -42.22793579 213.92066956 C-42.22654308 211.59933093 -42.21098487 209.27831377 -42.1953125 206.95703125 C-42.19158216 205.34706294 -42.18873528 203.73709236 -42.18673706 202.12712097 C-42.17910227 197.89053068 -42.15945513 193.6540776 -42.1373291 189.4175415 C-42.11686735 185.09413509 -42.10773464 180.7707065 -42.09765625 176.44726562 C-42.07620906 167.96478079 -42.04207501 159.48240747 -42 151 C-37.3125 149.85693359 -37.3125 149.85693359 -34.5 151.14453125 C-33.675 151.69496094 -32.85 152.24539062 -32 152.8125 C-28.73490829 154.96031814 -25.67617552 156.65425718 -22 158 C-22 158.66 -22 159.32 -22 160 C-19.69 160 -17.38 160 -15 160 C-14.67 160.99 -14.34 161.98 -14 163 C-10.40422382 165.12477683 -7.12838068 166.39288519 -3 167 C-3 167.66 -3 168.32 -3 169 C-1.02 169.33 0.96 169.66 3 170 C3 154.82 3 139.64 3 124 C1.68 124 0.36 124 -1 124 C-1.33 124.66 -1.66 125.32 -2 126 C-3.64363134 126.72159424 -5.31050386 127.39351421 -7 128 C-7 128.66 -7 129.32 -7 130 C-8.175625 130.2475 -9.35125 130.495 -10.5625 130.75 C-14.90806003 131.81896129 -18.21724066 133.63577541 -22 136 C-22 136.66 -22 137.32 -22 138 C-22.680625 138.0825 -23.36125 138.165 -24.0625 138.25 C-27.8746907 139.22332528 -30.64070329 140.95807455 -34 143 C-34 143.66 -34 144.32 -34 145 C-34.8353125 145.185625 -34.8353125 145.185625 -35.6875 145.375 C-38.2618003 146.07075684 -40.59880886 146.83185296 -43 148 C-43.33 148.99 -43.66 149.98 -44 151 C-46.31 151 -48.62 151 -51 151 C-51 151.66 -51 152.32 -51 153 C-52.65 153.66 -54.3 154.32 -56 155 C-56 155.66 -56 156.32 -56 157 C-58.64 157.33 -61.28 157.66 -64 158 C-64 158.66 -64 159.32 -64 160 C-65.66666667 161 -67.33333333 162 -69 163 C-69 163.66 -69 164.32 -69 165 C-69.66 165 -70.32 165 -71 165 C-71 178.53 -71 192.06 -71 206 C-75.13197139 205.17360572 -77.95004109 204.25400527 -81.6875 202.5 C-82.64011719 202.0565625 -83.59273437 201.613125 -84.57421875 201.15625 C-88.84890212 199.11871976 -88.84890212 199.11871976 -90.75 197.625 C-94.88776222 194.63661617 -98.94090735 192.74398421 -104 192 C-104 191.34 -104 190.68 -104 190 C-104.9075 189.54625 -105.815 189.0925 -106.75 188.625 C-107.8225 188.08875 -108.895 187.5525 -110 187 C-110.721875 186.67 -111.44375 186.34 -112.1875 186 C-115.69865395 184.06281161 -117.43843496 181.64197828 -119 178 C-119.25396729 175.91345215 -119.25396729 175.91345215 -119.25878906 173.66210938 C-119.26509338 172.81442993 -119.27139771 171.96675049 -119.27789307 171.09338379 C-119.27182037 169.73231506 -119.27182037 169.73231506 -119.265625 168.34375 C-119.26753845 167.40446655 -119.2694519 166.46518311 -119.27142334 165.49743652 C-119.27278288 163.51375053 -119.2691026 161.53005556 -119.26074219 159.54638672 C-119.25003946 156.51118981 -119.26064537 153.47658477 -119.2734375 150.44140625 C-119.27211586 148.51301953 -119.26955339 146.58463317 -119.265625 144.65625 C-119.26967346 143.74887085 -119.27372192 142.8414917 -119.27789307 141.90661621 C-119.27158875 141.05893677 -119.26528442 140.21125732 -119.25878906 139.33789062 C-119.25719788 138.59494751 -119.25560669 137.85200439 -119.25396729 137.08654785 C-118.9619382 134.68729139 -118.18188 133.09405724 -117 131 C-116.505 130.01 -116.505 130.01 -116 129 C-114.35636866 128.27840576 -112.68949614 127.60648579 -111 127 C-111 126.34 -111 125.68 -111 125 C-110.16855469 124.83177734 -110.16855469 124.83177734 -109.3203125 124.66015625 C-106.62336042 123.8928416 -104.35745564 122.73801034 -101.875 121.4375 C-97.22096317 119 -97.22096317 119 -95 119 C-95.33 118.01 -95.66 117.02 -96 116 C-95.0925 115.896875 -94.185 115.79375 -93.25 115.6875 C-89.89628259 114.97805978 -88.57527799 114.14606499 -86 112 C-84.66666667 111.33333333 -83.33333333 110.66666667 -82 110 C-81.34 109.505 -80.68 109.01 -80 108.5 C-78.05448389 107.04086292 -76.19633906 106.02953393 -74 105 C-73.39414063 104.69191406 -72.78828125 104.38382812 -72.1640625 104.06640625 C-69.16834398 102.59017673 -66.09616179 101.30667345 -63.0234375 100 C-60.84338504 99.05713834 -60.84338504 99.05713834 -59 97 C-57.35580437 96.08347203 -55.68561879 95.21290934 -54 94.375 C-53.113125 93.92898437 -52.22625 93.48296875 -51.3125 93.0234375 C-49 92 -49 92 -47 92 C-47 91.34 -47 90.68 -47 90 C-46.01 89.67 -45.02 89.34 -44 89 C-44.33 88.34 -44.66 87.68 -45 87 C-44.34 86.67 -43.68 86.34 -43 86 C-42.99191315 85.19899872 -42.98382629 84.39799744 -42.97549438 83.57272339 C-42.89743371 76.0103526 -42.81010873 68.44817157 -42.71247292 60.8860302 C-42.66260601 56.99860044 -42.61627547 53.1111966 -42.578125 49.22363281 C-42.54115037 45.46931562 -42.49475809 41.7152204 -42.44193649 37.9610939 C-42.42345704 36.53147413 -42.40832545 35.1018069 -42.39665604 33.67211533 C-42.37968349 31.66396419 -42.34951738 29.65593787 -42.31884766 27.64794922 C-42.30552399 26.50655487 -42.29220032 25.36516052 -42.2784729 24.18917847 C-41.98441742 20.82154236 -41.29996277 18.11659806 -40 15 C-37.9375 13.8125 -37.9375 13.8125 -36 13 C-35.67 12.01 -35.34 11.02 -35 10 C-34.154375 9.9175 -33.30875 9.835 -32.4375 9.75 C-28.27886509 8.84266147 -25.60417301 7.23458727 -22 5 C-22 4.34 -22 3.68 -22 3 C-21.154375 2.896875 -20.30875 2.79375 -19.4375 2.6875 C-15.92155013 2.13672494 -15.92155013 2.13672494 -12.6875 0.375 C-8.12462822 -1.32640982 -4.68598678 -1.15200784 0 0 Z M-41 21 C-40 23 -40 23 -40 23 Z M-41 33 C-40 35 -40 35 -40 35 Z M-41 40 C-41 41.65 -41 43.3 -41 45 C-40.67 45 -40.34 45 -40 45 C-40 43.35 -40 41.7 -40 40 C-40.33 40 -40.66 40 -41 40 Z M-41 50 C-41 51.98 -41 53.96 -41 56 C-40.67 56 -40.34 56 -40 56 C-40 54.02 -40 52.04 -40 50 C-40.33 50 -40.66 50 -41 50 Z M96 56 C97 60 97 60 97 60 Z M-41 59 C-40 62 -40 62 -40 62 Z M97 60 C97 77.16 97 94.32 97 112 C97.33 112 97.66 112 98 112 C98 94.84 98 77.68 98 60 C97.67 60 97.34 60 97 60 Z M4.0625 62.9609375 C3.381875 63.42757812 2.70125 63.89421875 2 64.375 C-0.42346046 66.01817963 -2.18897593 67.06299198 -5 68 C-9.66011138 70.41837785 -9.66011138 70.41837785 -13.6875 73.6875 C-15 75 -15 75 -16.72265625 75.375 C-19.74296162 76.20390027 -22.07261681 77.69289126 -24.75 79.3125 C-29.42027848 82.09406292 -34.10251715 84.64544094 -39 87 C-38.67 87.66 -38.34 88.32 -38 89 C-34.97065509 89.65772428 -34.97065509 89.65772428 -32 90 C-31.67 90.99 -31.34 91.98 -31 93 C-28.85531338 94.43379545 -28.85531338 94.43379545 -26.25 95.625 C-25.38890625 96.05039063 -24.5278125 96.47578125 -23.640625 96.9140625 C-21.08194468 97.96630086 -18.72417217 98.55903688 -16 99 C-16 99.66 -16 100.32 -16 101 C-13.35261084 102.4606285 -12.10551666 103 -9 103 C-9 103.66 -9 104.32 -9 105 C-8.24074219 105.39832031 -7.48148438 105.79664063 -6.69921875 106.20703125 C-5.70535156 106.73683594 -4.71148437 107.26664063 -3.6875 107.8125 C-2.70136719 108.33457031 -1.71523437 108.85664062 -0.69921875 109.39453125 C2 111 2 111 3.5859375 112.71484375 C4.93528374 114.21324851 4.93528374 114.21324851 7.05078125 114.109375 C7.79714844 113.99078125 8.54351562 113.8721875 9.3125 113.75 C10.10140625 113.63269531 10.8903125 113.51539063 11.703125 113.39453125 C12.46109375 113.26433594 13.2190625 113.13414063 14 113 C15.175625 112.814375 16.35125 112.62875 17.5625 112.4375 C18.366875 112.293125 19.17125 112.14875 20 112 C20 111.34 20 110.68 20 110 C22.475 109.505 22.475 109.505 25 109 C24.67 108.34 24.34 107.68 24 107 C25.134375 106.773125 26.26875 106.54625 27.4375 106.3125 C31.69194421 105.26211324 35.1637393 103.43577969 38.921875 101.21875 C41 100 41 100 43.08984375 98.98828125 C46.04492047 97.45937653 47.91019581 95.56747373 50 93 C49.85125183 90.33696961 49.85125183 90.33696961 49 88 C49.33 87.34 49.66 86.68 50 86 C47.36 85.01 44.72 84.02 42 83 C42 82.34 42 81.68 42 81 C39.03 80.01 36.06 79.02 33 78 C33 77.34 33 76.68 33 76 C31.37750059 75.16180842 29.75191503 74.3295884 28.125 73.5 C27.22007812 73.0359375 26.31515625 72.571875 25.3828125 72.09375 C23.13403141 70.86094411 23.13403141 70.86094411 21 71 C19.99708881 70.00291969 18.9976443 69.00235017 18 68 C16.52860314 67.07771139 15.02587299 66.20405766 13.5 65.375 C12.7265625 64.94960937 11.953125 64.52421875 11.15625 64.0859375 C7.68389477 62.13574022 7.68389477 62.13574022 4.0625 62.9609375 Z M-41 69 C-41 70.65 -41 72.3 -41 74 C-40.67 74 -40.34 74 -40 74 C-40 72.35 -40 70.7 -40 69 C-40.33 69 -40.66 69 -41 69 Z M-41 80 C-41 81.65 -41 83.3 -41 85 C-40.67 85 -40.34 85 -40 85 C-40 83.35 -40 81.7 -40 80 C-40.33 80 -40.66 80 -41 80 Z M50 90 C51 92 51 92 51 92 Z M97 113 C97 116.3 97 119.6 97 123 C97.33 123 97.66 123 98 123 C98 119.7 98 116.4 98 113 C97.67 113 97.34 113 97 113 Z M9 115 C8.34 115.66 7.68 116.32 7 117 C8.32 116.67 9.64 116.34 11 116 C10.34 115.67 9.68 115.34 9 115 Z M4 121 C3.34 121.66 2.68 122.32 2 123 C2.66 123 3.32 123 4 123 C3.67 139.83 3.34 156.66 3 174 C3.99 174 4.98 174 6 174 C6 156.84 6 139.68 6 122 C5.34 121.67 4.68 121.34 4 121 Z M1 171 C1.66 171.66 2.32 172.32 3 173 C3 172.34 3 171.68 3 171 C2.34 171 1.68 171 1 171 Z M-41 172 C-40 176 -40 176 -40 176 Z M8 177 C8 193.83 8 210.66 8 228 C8.33 228 8.66 228 9 228 C9 211.17 9 194.34 9 177 C8.67 177 8.34 177 8 177 Z M-41 182 C-40 185 -40 185 -40 185 Z M-41 191 C-40 195 -40 195 -40 195 Z M-41 199 C-41 200.65 -41 202.3 -41 204 C-40.67 204 -40.34 204 -40 204 C-40 202.35 -40 200.7 -40 199 C-40.33 199 -40.66 199 -41 199 Z M-41 210 C-40 213 -40 213 -40 213 Z M-41 218 C-41 219.65 -41 221.3 -41 223 C-40.67 223 -40.34 223 -40 223 C-40 221.35 -40 219.7 -40 218 C-40.33 218 -40.66 218 -41 218 Z " fill="#018994" transform="translate(124,14)"/>
<path d="M0 0 C1.34669792 0.63923935 2.68148312 1.30448906 4 2 C4.99 2.33 5.98 2.66 7 3 C7.598125 3.45375 8.19625 3.9075 8.8125 4.375 C12.26185923 6.93738115 15.93426759 8.64475586 20 10 C20.598125 10.45375 21.19625 10.9075 21.8125 11.375 C25.26185923 13.93738115 28.93426759 15.64475586 33 17 C33.598125 17.45375 34.19625 17.9075 34.8125 18.375 C38.89518325 21.40785041 42.96582408 23.25968001 48 24 C47.67 24.66 47.34 25.32 47 26 C48.65 26.66 50.3 27.32 52 28 C52 28.66 52 29.32 52 30 C53.98 30 55.96 30 58 30 C58 30.66 58 31.32 58 32 C60.31 32.99 62.62 33.98 65 35 C65 35.66 65 36.32 65 37 C65.94875 36.95875 66.8975 36.9175 67.875 36.875 C71 37 71 37 73 39 C77.72737256 43.28418138 84.44724345 48 91 48 C91.2475 48.61875 91.495 49.2375 91.75 49.875 C93.22047178 52.37480203 94.41403076 52.83316022 97 54 C96.54810561 56.08473947 96.08823175 58.16775036 95.625 60.25 C95.36976563 61.41015625 95.11453125 62.5703125 94.8515625 63.765625 C92.55082046 72.5042232 86.14348109 75.45016548 78.75 80 C74.02742937 82.60984167 69.14664143 84.93780963 64.3046875 87.31640625 C61.03917881 88.92626675 61.03917881 88.92626675 58.1953125 90.71484375 C56 92 56 92 54 92 C54 91.34 54 90.68 54 90 C52.515 89.505 52.515 89.505 51 89 C50.52949219 88.51917969 50.05898437 88.03835937 49.57421875 87.54296875 C47.74575168 85.7507988 46.21975288 85.1412264 43.8125 84.3125 C43.09707031 84.06113281 42.38164062 83.80976562 41.64453125 83.55078125 C41.10183594 83.36902344 40.55914062 83.18726562 40 83 C40 82.34 40 81.68 40 81 C37.69 80.01 35.38 79.02 33 78 C33 77.34 33 76.68 33 76 C32.13375 75.71125 31.2675 75.4225 30.375 75.125 C29.26125 74.75375 28.1475 74.3825 27 74 C25.3603125 73.5359375 25.3603125 73.5359375 23.6875 73.0625 C22.800625 72.711875 21.91375 72.36125 21 72 C20.67 71.01 20.34 70.02 20 69 C19.175 68.731875 18.35 68.46375 17.5 68.1875 C12.83194991 66.60369729 8.81826916 64.12249567 5 61 C5 60.34 5 59.68 5 59 C3.948125 58.731875 2.89625 58.46375 1.8125 58.1875 C-1.59072912 57.12747781 -4.13158918 56.08611696 -7 54 C-7 53.34 -7 52.68 -7 52 C-7.680625 51.9175 -8.36125 51.835 -9.0625 51.75 C-12.25390698 50.93517269 -14.52183005 49.65360915 -17.31640625 47.96484375 C-19.07010129 46.89465194 -19.07010129 46.89465194 -21.4375 46.125 C-30.0564494 42.34107099 -34.93374803 35.59937795 -40 28 C-40.1953125 24.86328125 -40.1953125 24.86328125 -40.125 21.3125 C-40.09792969 19.54326172 -40.09792969 19.54326172 -40.0703125 17.73828125 C-40.04710938 16.83464844 -40.02390625 15.93101563 -40 15 C-39.0409375 14.5978125 -39.0409375 14.5978125 -38.0625 14.1875 C-35.66868314 13.11332248 -35.66868314 13.11332248 -35 10 C-34.154375 9.9175 -33.30875 9.835 -32.4375 9.75 C-28.27886509 8.84266147 -25.60417301 7.23458727 -22 5 C-22 4.34 -22 3.68 -22 3 C-21.154375 2.896875 -20.30875 2.79375 -19.4375 2.6875 C-15.92155013 2.13672494 -15.92155013 2.13672494 -12.6875 0.375 C-8.12462822 -1.32640982 -4.68598678 -1.15200784 0 0 Z " fill="#2FC6C6" transform="translate(124,14)"/>
<path d="M0 0 C0.07593214 7.77784995 0.12855012 15.55560468 0.16479492 23.33374023 C0.1799012 25.98091199 0.2003873 28.62805864 0.22631836 31.27514648 C0.26261991 35.07542101 0.27970803 38.87536526 0.29296875 42.67578125 C0.30845261 43.86335526 0.32393646 45.05092926 0.33988953 46.27449036 C0.34011612 47.37540512 0.34034271 48.47631989 0.34057617 49.6105957 C0.35056892 51.06620659 0.35056892 51.06620659 0.36076355 52.55122375 C-0.06651415 55.45148209 -0.84910961 56.1150402 -3 58 C-3.33 58.99 -3.66 59.98 -4 61 C-6.31 61 -8.62 61 -11 61 C-11 61.66 -11 62.32 -11 63 C-12.65 63.66 -14.3 64.32 -16 65 C-16 65.66 -16 66.32 -16 67 C-18.64 67.33 -21.28 67.66 -24 68 C-24 68.66 -24 69.32 -24 70 C-25.66666667 71 -27.33333333 72 -29 73 C-29 73.66 -29 74.32 -29 75 C-29.66 75 -30.32 75 -31 75 C-31 88.53 -31 102.06 -31 116 C-35.13197139 115.17360572 -37.95004109 114.25400527 -41.6875 112.5 C-42.64011719 112.0565625 -43.59273437 111.613125 -44.57421875 111.15625 C-48.84890212 109.11871976 -48.84890212 109.11871976 -50.75 107.625 C-54.88776222 104.63661617 -58.94090735 102.74398421 -64 102 C-64 101.34 -64 100.68 -64 100 C-64.9075 99.54625 -65.815 99.0925 -66.75 98.625 C-67.8225 98.08875 -68.895 97.5525 -70 97 C-70.721875 96.67 -71.44375 96.34 -72.1875 96 C-75.69865395 94.06281161 -77.43843496 91.64197828 -79 88 C-79.25396729 85.91345215 -79.25396729 85.91345215 -79.25878906 83.66210938 C-79.26509338 82.81442993 -79.27139771 81.96675049 -79.27789307 81.09338379 C-79.27182037 79.73231506 -79.27182037 79.73231506 -79.265625 78.34375 C-79.26753845 77.40446655 -79.2694519 76.46518311 -79.27142334 75.49743652 C-79.27278288 73.51375053 -79.2691026 71.53005556 -79.26074219 69.54638672 C-79.25003946 66.51118981 -79.26064537 63.47658477 -79.2734375 60.44140625 C-79.27211586 58.51301953 -79.26955339 56.58463317 -79.265625 54.65625 C-79.26967346 53.74887085 -79.27372192 52.8414917 -79.27789307 51.90661621 C-79.27158875 51.05893677 -79.26528442 50.21125732 -79.25878906 49.33789062 C-79.25719788 48.59494751 -79.25560669 47.85200439 -79.25396729 47.08654785 C-78.9619382 44.68729139 -78.18188 43.09405724 -77 41 C-76.67 40.34 -76.34 39.68 -76 39 C-74.35636866 38.27840576 -72.68949614 37.60648579 -71 37 C-71 36.34 -71 35.68 -71 35 C-70.44570312 34.88785156 -69.89140625 34.77570313 -69.3203125 34.66015625 C-66.62336042 33.8928416 -64.35745564 32.73801034 -61.875 31.4375 C-57.22096317 29 -57.22096317 29 -55 29 C-55.33 28.01 -55.66 27.02 -56 26 C-55.0925 25.896875 -54.185 25.79375 -53.25 25.6875 C-49.89628259 24.97805978 -48.57527799 24.14606499 -46 22 C-44.66666667 21.33333333 -43.33333333 20.66666667 -42 20 C-41.34 19.505 -40.68 19.01 -40 18.5 C-38.05448389 17.04086292 -36.19633906 16.02953393 -34 15 C-33.09121094 14.53787109 -33.09121094 14.53787109 -32.1640625 14.06640625 C-29.16834398 12.59017673 -26.09616179 11.30667345 -23.0234375 10 C-20.84338504 9.05713834 -20.84338504 9.05713834 -19 7 C-6.52564103 0 -6.52564103 0 0 0 Z " fill="#2FC6C7" transform="translate(84,104)"/>
<path d="M0 0 C0.66 0.66 1.32 1.32 2 2 C1.94921875 3.8125 1.94921875 3.8125 1.6875 6 C1.52368849 12.33745774 4.99644301 16.37922797 9 21 C11.53099205 23.41144481 11.53099205 23.41144481 14 25 C14.61875 25.515625 15.2375 26.03125 15.875 26.5625 C18.73777626 28.49908394 21.81910621 29.6606763 25 31 C25.886875 31.53625 26.77375 32.0725 27.6875 32.625 C29.89723322 34.08879848 29.89723322 34.08879848 32.25 34.5625 C32.8275 34.706875 33.405 34.85125 34 35 C34.33 35.66 34.66 36.32 35 37 C37.21526472 38.08998085 39.48340554 38.98110939 41.7734375 39.90234375 C44.04143337 41.02042592 45.41475746 42.04145841 47 44 C47 44.66 47 45.32 47 46 C43.535 47.98 43.535 47.98 40 50 C40 50.66 40 51.32 40 52 C39.113125 52.103125 38.22625 52.20625 37.3125 52.3125 C32.94993487 53.21793805 30.13447586 54.86552414 27 58 C26.505 58.99 26.505 58.99 26 60 C24.33389782 60.33614342 22.66711669 60.66892471 21 61 C19.17654937 61.87407294 17.38486713 62.81658665 15.625 63.8125 C14.67238281 64.34746094 13.71976563 64.88242188 12.73828125 65.43359375 C11.83464844 65.95050781 10.93101563 66.46742187 10 67 C8.87658203 67.63615234 8.87658203 67.63615234 7.73046875 68.28515625 C6.14978577 69.18334474 4.57418491 70.09047094 3 71 C3.969375 71.28875 4.93875 71.5775 5.9375 71.875 C9 73 9 73 10 75 C15.37047141 78.20993693 20.92668089 80.54768456 27 82 C27 82.66 27 83.32 27 84 C28.65 84.66 30.3 85.32 32 86 C32 86.66 32 87.32 32 88 C33.299375 88.37125 33.299375 88.37125 34.625 88.75 C38.1992386 90.07379207 40.88099777 91.83025932 44 94 C45.1446875 94.556875 45.1446875 94.556875 46.3125 95.125 C48 96 48 96 49 98 C48.34 98 47.68 98 47 98 C47 98.99 47 99.98 47 101 C44.35261084 102.4606285 43.10551666 103 40 103 C40 103.66 40 104.32 40 105 C40.99 105.495 40.99 105.495 42 106 C39.64722731 108.72426311 37.37503669 109.8141763 34 111 C34 111.66 34 112.32 34 113 C32.824375 113.2475 31.64875 113.495 30.4375 113.75 C26.09193997 114.81896129 22.78275934 116.63577541 19 119 C19 119.66 19 120.32 19 121 C18.319375 121.0825 17.63875 121.165 16.9375 121.25 C13.1253093 122.22332528 10.35929671 123.95807455 7 126 C7 126.66 7 127.32 7 128 C4.01758453 128.77321882 1.02419525 129.41196203 -2 130 C-1.505 129.01 -1.505 129.01 -1 128 C-0.34 128 0.32 128 1 128 C1 109.85 1 91.7 1 73 C-2.465 73.99 -2.465 73.99 -6 75 C-6 74.34 -6 73.68 -6 73 C-4.515 72.505 -4.515 72.505 -3 72 C-3.33 71.34 -3.66 70.68 -4 70 C-3.01 69.505 -3.01 69.505 -2 69 C-1.98969254 68.1945575 -1.97938507 67.38911499 -1.96876526 66.55926514 C-1.87076763 58.96690831 -1.76824995 51.37463233 -1.66066074 43.78240585 C-1.60550807 39.8792168 -1.55210044 35.97602015 -1.50268555 32.07275391 C-1.4549289 28.30555045 -1.40258224 24.53843613 -1.34705925 20.77133942 C-1.32668683 19.33446728 -1.30796543 17.89757074 -1.29092598 16.46065521 C-1.2667688 14.44734567 -1.23618517 12.43411635 -1.20532227 10.42089844 C-1.18200584 8.70214508 -1.18200584 8.70214508 -1.15821838 6.94866943 C-1.02460746 4.45860196 -0.72326619 2.37347841 0 0 Z M0 4 C1 6 1 6 1 6 Z M0 16 C1 18 1 18 1 18 Z M0 23 C0 24.65 0 26.3 0 28 C0.33 28 0.66 28 1 28 C1 26.35 1 24.7 1 23 C0.67 23 0.34 23 0 23 Z M0 33 C0 34.98 0 36.96 0 39 C0.33 39 0.66 39 1 39 C1 37.02 1 35.04 1 33 C0.67 33 0.34 33 0 33 Z M0 42 C1 45 1 45 1 45 Z M0 52 C0 53.65 0 55.3 0 57 C0.33 57 0.66 57 1 57 C1 55.35 1 53.7 1 52 C0.67 52 0.34 52 0 52 Z M0 63 C0 64.65 0 66.3 0 68 C0.33 68 0.66 68 1 68 C1 66.35 1 64.7 1 63 C0.67 63 0.34 63 0 63 Z " fill="#039FA8" transform="translate(83,31)"/>
<path d="M0 0 C0.66 0.66 1.32 1.32 2 2 C1.94921875 3.8125 1.94921875 3.8125 1.6875 6 C1.52368849 12.33745774 4.99644301 16.37922797 9 21 C11.53099205 23.41144481 11.53099205 23.41144481 14 25 C14.61875 25.515625 15.2375 26.03125 15.875 26.5625 C18.73777626 28.49908394 21.81910621 29.6606763 25 31 C25.886875 31.53625 26.77375 32.0725 27.6875 32.625 C29.89723322 34.08879848 29.89723322 34.08879848 32.25 34.5625 C32.8275 34.706875 33.405 34.85125 34 35 C34.33 35.66 34.66 36.32 35 37 C37.21526472 38.08998085 39.48340554 38.98110939 41.7734375 39.90234375 C44.04143337 41.02042592 45.41475746 42.04145841 47 44 C47 44.66 47 45.32 47 46 C43.535 47.98 43.535 47.98 40 50 C40 50.66 40 51.32 40 52 C39.113125 52.103125 38.22625 52.20625 37.3125 52.3125 C32.94993487 53.21793805 30.13447586 54.86552414 27 58 C26.67 58.66 26.34 59.32 26 60 C24.33367032 60.33501384 22.66693778 60.6680251 21 61 C19.21893155 61.87704128 17.4692175 62.81967703 15.75 63.8125 C2.95105422 71 2.95105422 71 -1 71 C-1.99 70.67 -2.98 70.34 -4 70 C-3.01 69.505 -3.01 69.505 -2 69 C-1.98969254 68.1945575 -1.97938507 67.38911499 -1.96876526 66.55926514 C-1.87076763 58.96690831 -1.76824995 51.37463233 -1.66066074 43.78240585 C-1.60550807 39.8792168 -1.55210044 35.97602015 -1.50268555 32.07275391 C-1.4549289 28.30555045 -1.40258224 24.53843613 -1.34705925 20.77133942 C-1.32668683 19.33446728 -1.30796543 17.89757074 -1.29092598 16.46065521 C-1.2667688 14.44734567 -1.23618517 12.43411635 -1.20532227 10.42089844 C-1.18977798 9.27506287 -1.1742337 8.12922729 -1.15821838 6.94866943 C-1.02460746 4.45860196 -0.72326619 2.37347841 0 0 Z M0 4 C1 6 1 6 1 6 Z M0 16 C1 18 1 18 1 18 Z M0 23 C0 24.65 0 26.3 0 28 C0.33 28 0.66 28 1 28 C1 26.35 1 24.7 1 23 C0.67 23 0.34 23 0 23 Z M0 33 C0 34.98 0 36.96 0 39 C0.33 39 0.66 39 1 39 C1 37.02 1 35.04 1 33 C0.67 33 0.34 33 0 33 Z M0 42 C1 45 1 45 1 45 Z M0 52 C0 53.65 0 55.3 0 57 C0.33 57 0.66 57 1 57 C1 55.35 1 53.7 1 52 C0.67 52 0.34 52 0 52 Z M0 63 C0 64.65 0 66.3 0 68 C0.33 68 0.66 68 1 68 C1 66.35 1 64.7 1 63 C0.67 63 0.34 63 0 63 Z " fill="#018B96" transform="translate(83,31)"/>
<path d="M0 0 C1.65 0 3.3 0 5 0 C5 7.26 5 14.52 5 22 C3.02 22.33 1.04 22.66 -1 23 C-1.02887512 19.35418313 -1.04675585 15.70839537 -1.0625 12.0625 C-1.07087891 11.02158203 -1.07925781 9.98066406 -1.08789062 8.90820312 C-1.09272461 7.42416992 -1.09272461 7.42416992 -1.09765625 5.91015625 C-1.10289307 4.99371338 -1.10812988 4.07727051 -1.11352539 3.13305664 C-1 1 -1 1 0 0 Z " fill="#25C0C3" transform="translate(48,179)"/>
<path d="M0 0 C0.7528125 0.07863281 1.505625 0.15726563 2.28125 0.23828125 C4.64446346 0.71674876 6.38233826 1.55489813 8.5 2.6875 C9.49 3.0175 10.48 3.3475 11.5 3.6875 C4.42444501 6.6892506 -1.87048445 7.03605655 -9.5 6.6875 C-9.5 2.6875 -9.5 2.6875 -8.5 0.6875 C-5.55251478 -0.37902426 -3.08719029 -0.35418108 0 0 Z " fill="#26C7C5" transform="translate(119.5,13.3125)"/>
<path d="M0 0 C0.66 0.33 1.32 0.66 2 1 C2 18.49 2 35.98 2 54 C1.67 54 1.34 54 1 54 C1 37.17 1 20.34 1 3 C-1.31 3.66 -3.62 4.32 -6 5 C-6 4.34 -6 3.68 -6 3 C-4.03533587 1.93224776 -2.03144641 0.93446535 0 0 Z " fill="#14B1B7" transform="translate(83,101)"/>
<path d="M0 0 C0.66 0 1.32 0 2 0 C2 0.66 2 1.32 2 2 C3.65 2 5.3 2 7 2 C7 2.99 7 3.98 7 5 C4.69 5 2.38 5 0 5 C0 5.66 0 6.32 0 7 C-1.65 7.66 -3.3 8.32 -5 9 C-5 9.66 -5 10.32 -5 11 C-5.99 10.67 -6.98 10.34 -8 10 C-7.25 7.5625 -7.25 7.5625 -6 5 C-4.67696283 4.6278958 -3.34262065 4.29369827 -2 4 C-0.71563266 2.0162233 -0.71563266 2.0162233 0 0 Z " fill="#22ABAE" transform="translate(73,160)"/>
<path d="M0 0 C0 0.66 0 1.32 0 2 C-0.66 2 -1.32 2 -2 2 C-2.33 2.99 -2.66 3.98 -3 5 C-4.32 4.67 -5.64 4.34 -7 4 C-7 4.99 -7 5.98 -7 7 C-8.65 7 -10.3 7 -12 7 C-12 7.66 -12 8.32 -12 9 C-12.66 9 -13.32 9 -14 9 C-14.33 9.99 -14.66 10.98 -15 12 C-15.66 12 -16.32 12 -17 12 C-16.64002287 9.39016584 -16.31247433 8.26581526 -14.2734375 6.53125 C-11.8776951 4.91762282 -9.46111918 3.59783983 -6.875 2.3125 C-5.57175781 1.65701172 -5.57175781 1.65701172 -4.2421875 0.98828125 C-2 0 -2 0 0 0 Z " fill="#33B9B6" transform="translate(77,106)"/>
<path d="M0 0 C0.33 0.99 0.66 1.98 1 3 C0.67 3.33 0.34 3.66 0 4 C-0.04080783 5.99958364 -0.04254356 8.00045254 0 10 C0.66 10.33 1.32 10.66 2 11 C1.34 11.66 0.68 12.32 0 13 C-0.16681109 16.08347826 -0.16681109 16.08347826 0 19 C0.66 19.33 1.32 19.66 2 20 C0.68 20.33 -0.64 20.66 -2 21 C-2 14.73 -2 8.46 -2 2 C-1.34 2 -0.68 2 0 2 C0 1.34 0 0.68 0 0 Z " fill="#21C1C4" transform="translate(7,153)"/>
<path d="M0 0 C0.33 0 0.66 0 1 0 C1 14.19 1 28.38 1 43 C0.67 43 0.34 43 0 43 C0 28.81 0 14.62 0 0 Z " fill="#2CB9B9" transform="translate(3,149)"/>
<path d="M0 0 C1.41759571 2.83519141 0.57621354 4.35365048 -0.25 7.375 C-0.50265625 8.33148438 -0.7553125 9.28796875 -1.015625 10.2734375 C-2 13 -2 13 -5 17 C-4.67 12.38 -4.34 7.76 -4 3 C-3.34 3 -2.68 3 -2 3 C-2 2.34 -2 1.68 -2 1 C-1.34 0.67 -0.68 0.34 0 0 Z " fill="#14B7B8" transform="translate(220,68)"/>
<path d="M0 0 C0.7528125 0.07863281 1.505625 0.15726563 2.28125 0.23828125 C4.64446346 0.71674876 6.38233826 1.55489813 8.5 2.6875 C9.49 3.0175 10.48 3.3475 11.5 3.6875 C7.06923077 5.77980769 7.06923077 5.77980769 4.1875 5.3125 C3.630625 5.10625 3.07375 4.9 2.5 4.6875 C2.83 4.0275 3.16 3.3675 3.5 2.6875 C-0.79 2.6875 -5.08 2.6875 -9.5 2.6875 C-8.5 0.6875 -8.5 0.6875 -6.71875 0.04296875 C-4.34330272 -0.33760467 -2.38713685 -0.27386673 0 0 Z " fill="#25A8A5" transform="translate(119.5,13.3125)"/>
<path d="M0 0 C2 2 2 2 2.125 3.98828125 C2.08375 4.75527344 2.0425 5.52226563 2 6.3125 C1.90425442 10.02264112 2.26639053 12.64113164 4 16 C3.01 16.33 2.02 16.66 1 17 C0.34 16.67 -0.32 16.34 -1 16 C-1.02712153 14.083412 -1.04645097 12.1667127 -1.0625 10.25 C-1.07410156 9.18265625 -1.08570312 8.1153125 -1.09765625 7.015625 C-1.01510087 4.46631499 -0.74617558 2.42066409 0 0 Z M0 4 C1 6 1 6 1 6 Z " fill="#2D9AA8" transform="translate(83,31)"/>
<path d="M0 0 C0 1.98 0 3.96 0 6 C-3.5609462 6 -4.34325001 5.22824192 -7 3 C-7.66 2.34 -8.32 1.68 -9 1 C-6.04335481 -0.4783226 -3.25770263 -0.06032783 0 0 Z " fill="#24B8BE" transform="translate(38,207)"/>
<path d="M0 0 C0.33 0.66 0.66 1.32 1 2 C0.360625 2.433125 -0.27875 2.86625 -0.9375 3.3125 C-3.26746003 4.91239177 -3.26746003 4.91239177 -4 8 C-5.65 8 -7.3 8 -9 8 C-9.33 6.68 -9.66 5.36 -10 4 C-8.906875 3.71125 -7.81375 3.4225 -6.6875 3.125 C-2.95986155 2.18106796 -2.95986155 2.18106796 0 0 Z " fill="#2AB0AB" transform="translate(98,21)"/>
<path d="M0 0 C1.98 0 3.96 0 6 0 C6 0.99 6 1.98 6 3 C8.97 3.495 8.97 3.495 12 4 C12 4.99 12 5.98 12 7 C7.39104317 5.68315519 3.85859765 3.84801255 0 1 C0 0.67 0 0.34 0 0 Z " fill="#29AFB2" transform="translate(132,76)"/>
<path d="M0 0 C1.98 0 3.96 0 6 0 C6 0.99 6 1.98 6 3 C5.34 3 4.68 3 4 3 C4 3.66 4 4.32 4 5 C2.35 5.66 0.7 6.32 -1 7 C-0.67 4.69 -0.34 2.38 0 0 Z " fill="#23BEBA" transform="translate(56,169)"/>
<path d="M0 0 C5.52628901 1.19194469 8.17819158 2.5991297 12 7 C11.01 7.99 10.02 8.98 9 10 C8.67 9.01 8.34 8.02 8 7 C7.01 6.67 6.02 6.34 5 6 C4.67 5.34 4.34 4.68 4 4 C3.01 4 2.02 4 1 4 C0.67 2.68 0.34 1.36 0 0 Z " fill="#1EA7A6" transform="translate(207,60)"/>
<path d="M0 0 C0.66 0.33 1.32 0.66 2 1 C2.36637589 7.35051546 2.36637589 7.35051546 0.625 10.4375 C-1 12 -1 12 -3 12 C-2.01 8.04 -1.02 4.08 0 0 Z " fill="#059AA2" transform="translate(219,73)"/>
<path d="M0 0 C2.31 0.33 4.62 0.66 7 1 C6.67 1.66 6.34 2.32 6 3 C7.32 3.66 8.64 4.32 10 5 C9.67 5.66 9.34 6.32 9 7 C4.545 5.02 4.545 5.02 0 3 C0 2.01 0 1.02 0 0 Z " fill="#2CA9AE" transform="translate(165,37)"/>
<path d="M0 0 C0.33 0 0.66 0 1 0 C1.3690205 11.52164009 1.3690205 11.52164009 -1 17 C-1.33 17 -1.66 17 -2 17 C-2 14.03 -2 11.06 -2 8 C-1.34 8 -0.68 8 0 8 C0 5.36 0 2.72 0 0 Z " fill="#0091A1" transform="translate(132,134)"/>
<path d="M0 0 C1.875 0.25 1.875 0.25 4 1 C5.125 3 5.125 3 6 5 C6.66 5.33 7.32 5.66 8 6 C5.69 6 3.38 6 1 6 C0.67 4.02 0.34 2.04 0 0 Z M2 3 C3 5 3 5 3 5 Z " fill="#1799A8" transform="translate(172,101)"/>
<path d="M0 0 C0 0.99 0 1.98 0 3 C-0.66 3 -1.32 3 -2 3 C-2 3.66 -2 4.32 -2 5 C-2.66 5 -3.32 5 -4 5 C-4.33 5.99 -4.66 6.98 -5 8 C-5.66 8 -6.32 8 -7 8 C-6.61512253 5.20963832 -6.22759329 4.19822641 -4.0625 2.3125 C-2 1 -2 1 0 0 Z " fill="#29ACB2" transform="translate(67,110)"/>
<path d="M0 0 C1.65 0 3.3 0 5 0 C5.33 0.99 5.66 1.98 6 3 C6.99 3 7.98 3 9 3 C9 3.66 9 4.32 9 5 C2.25 3.375 2.25 3.375 0 0 Z " fill="#30ACAE" transform="translate(13,199)"/>
<path d="M0 0 C0.66 0.33 1.32 0.66 2 1 C2 3.31 2 5.62 2 8 C1.67 8 1.34 8 1 8 C1 6.35 1 4.7 1 3 C-1.31 3.66 -3.62 4.32 -6 5 C-6 4.34 -6 3.68 -6 3 C-4.03533587 1.93224776 -2.03144641 0.93446535 0 0 Z " fill="#24A8AC" transform="translate(83,101)"/>
<path d="M0 0 C0.33 0.99 0.66 1.98 1 3 C-1.3125 4.125 -1.3125 4.125 -4 5 C-4.99 4.34 -5.98 3.68 -7 3 C-2.25 0 -2.25 0 0 0 Z " fill="#0696A0" transform="translate(112,141)"/>
<path d="M0 0 C1.65 0 3.3 0 5 0 C4.67 1.32 4.34 2.64 4 4 C2.68 3.67 1.36 3.34 0 3 C0 2.01 0 1.02 0 0 Z " fill="#067083" transform="translate(105,87)"/>
<path d="M0 0 C1.5 1.375 1.5 1.375 3 3 C3 3.66 3 4.32 3 5 C2.01 5.33 1.02 5.66 0 6 C-0.66 5.67 -1.32 5.34 -2 5 C-1 2 -1 2 0 0 Z " fill="#0AB2AC" transform="translate(84,42)"/>
<path d="M0 0 C0.66 0.66 1.32 1.32 2 2 C-2.29 2 -6.58 2 -11 2 C-6.93150591 -0.71232939 -4.83523216 -0.30699887 0 0 Z " fill="#15AFAF" transform="translate(122,11)"/>
<path d="M0 0 C-1.8125 1.0625 -1.8125 1.0625 -4 2 C-4.99 1.67 -5.98 1.34 -7 1 C-3.375 -1.125 -3.375 -1.125 0 0 Z " fill="#199090" transform="translate(38,127)"/>
<path d="M0 0 C-1.8125 1.0625 -1.8125 1.0625 -4 2 C-4.99 1.67 -5.98 1.34 -7 1 C-3.375 -1.125 -3.375 -1.125 0 0 Z " fill="#00AAAA" transform="translate(61,114)"/>
<path d="M0 0 C0.99 0.33 1.98 0.66 3 1 C1.35 1.66 -0.3 2.32 -2 3 C-1.34 2.01 -0.68 1.02 0 0 Z " fill="#0CC2C2" transform="translate(57,175)"/>
<path d="M0 0 C2.475 0.495 2.475 0.495 5 1 C4.01 1.33 3.02 1.66 2 2 C1.34 1.34 0.68 0.68 0 0 Z " fill="#006A6A" transform="translate(102,251)"/>
<path d="M0 0 C2.475 0.495 2.475 0.495 5 1 C4.01 1.33 3.02 1.66 2 2 C1.34 1.34 0.68 0.68 0 0 Z " fill="#00466A" transform="translate(89,244)"/>
<path d="M0 0 C2.475 0.495 2.475 0.495 5 1 C4.01 1.33 3.02 1.66 2 2 C1.34 1.34 0.68 0.68 0 0 Z " fill="#2DA6C9" transform="translate(43,218)"/>
<path d="M0 0 C2.475 0.495 2.475 0.495 5 1 C4.01 1.33 3.02 1.66 2 2 C1.34 1.34 0.68 0.68 0 0 Z " fill="#26AD83" transform="translate(159,94)"/>
<path d="M0 0 C2.475 0.495 2.475 0.495 5 1 C4.01 1.33 3.02 1.66 2 2 C1.34 1.34 0.68 0.68 0 0 Z " fill="#1F8A9F" transform="translate(146,87)"/>
<path d="M0 0 C0.99 0.33 1.98 0.66 3 1 C1.35 1.33 -0.3 1.66 -2 2 C-1.34 1.34 -0.68 0.68 0 0 Z " fill="#005878" transform="translate(112,87)"/>
<path d="M0 0 C1.65 0 3.3 0 5 0 C5 0.33 5 0.66 5 1 C3.35 1 1.7 1 0 1 C0 0.67 0 0.34 0 0 Z " fill="#000000" transform="translate(113,256)"/>
<path d="M0 0 C1.98 0.99 1.98 0.99 4 2 C2.68 1.67 1.36 1.34 0 1 C0 0.67 0 0.34 0 0 Z " fill="#2E909D" transform="translate(29,210)"/>
<path d="M0 0 C0.66 0.33 1.32 0.66 2 1 C0.68 1.33 -0.64 1.66 -2 2 C-1.34 1.34 -0.68 0.68 0 0 Z " fill="#006E6E" transform="translate(146,183)"/>
<path d="M0 0 C0.99 0.33 1.98 0.66 3 1 C1.68 1.33 0.36 1.66 -1 2 C-0.67 1.34 -0.34 0.68 0 0 Z " fill="#005566" transform="translate(171,169)"/>
<path d="M0 0 C0.99 0.33 1.98 0.66 3 1 C1.68 1.33 0.36 1.66 -1 2 C-0.67 1.34 -0.34 0.68 0 0 Z " fill="#00A5A5" transform="translate(91,156)"/>
<path d="M0 0 C0.99 0.33 1.98 0.66 3 1 C1.68 1.33 0.36 1.66 -1 2 C-0.67 1.34 -0.34 0.68 0 0 Z " fill="#00546E" transform="translate(160,113)"/>
<path d="M0 0 C1.32 0.33 2.64 0.66 4 1 C3.01 1.495 3.01 1.495 2 2 C1.34 1.34 0.68 0.68 0 0 Z " fill="#00B2BA" transform="translate(87,101)"/>
<path d="M0 0 C1.32 0.33 2.64 0.66 4 1 C3.01 1.495 3.01 1.495 2 2 C1.34 1.34 0.68 0.68 0 0 Z " fill="#119494" transform="translate(133,18)"/>
<path d="M0 0 C1.485 0.99 1.485 0.99 3 2 C2.01 2 1.02 2 0 2 C0 1.34 0 0.68 0 0 Z " fill="#00DFDF" transform="translate(84,161)"/>
<path d="M0 0 C3 1 3 1 3 1 Z " fill="#2A7F7F" transform="translate(26,209)"/>
<path d="M0 0 C3 1 3 1 3 1 Z " fill="#1C7878" transform="translate(15,203)"/>
<path d="M0 0 C3 1 3 1 3 1 Z " fill="#006363" transform="translate(148,182)"/>
<path d="M0 0 C3 1 3 1 3 1 Z " fill="#00B8B8" transform="translate(154,178)"/>
<path d="M0 0 C3 1 3 1 3 1 Z " fill="#00A4A4" transform="translate(167,171)"/>
<path d="M0 0 C3 1 3 1 3 1 Z " fill="#00B8B8" transform="translate(207,149)"/>
<path d="M0 0 C3 1 3 1 3 1 Z " fill="#00547F" transform="translate(106,148)"/>
<path d="M0 0 C3 1 3 1 3 1 Z " fill="#007F7F" transform="translate(112,115)"/>
<path d="M0 0 C3 1 3 1 3 1 Z " fill="#00546A" transform="translate(93,105)"/>
<path d="M0 0 C3 1 3 1 3 1 Z " fill="#0055AA" transform="translate(127,79)"/>
<path d="M0 0 C3 1 3 1 3 1 Z " fill="#1CE2E2" transform="translate(205,58)"/>
<path d="M0 0 C3 1 3 1 3 1 Z " fill="#007F7F" transform="translate(186,47)"/>
<path d="M0 0 C2 1 2 1 2 1 Z " fill="#007F7F" transform="translate(119,254)"/>
<path d="M0 0 C2 1 2 1 2 1 Z " fill="#007F7F" transform="translate(110,254)"/>
<path d="M0 0 C2 1 2 1 2 1 Z " fill="#006A6A" transform="translate(107,253)"/>
<path d="M0 0 C2 1 2 1 2 1 Z " fill="#00BFBF" transform="translate(125,252)"/>
<path d="M0 0 C2 1 2 1 2 1 Z " fill="#003FBF" transform="translate(100,250)"/>
<path d="M0 0 C2 1 2 1 2 1 Z " fill="#005555" transform="translate(96,247)"/>
<path d="M0 0 C2 1 2 1 2 1 Z " fill="#007777" transform="translate(94,246)"/>
<path d="M0 0 C2 1 2 1 2 1 Z " fill="#00007F" transform="translate(50,222)"/>
<path d="M0 0 C2 1 2 1 2 1 Z " fill="#2AD455" transform="translate(41,217)"/>
<path d="M0 0 C2 1 2 1 2 1 Z " fill="#00FFFF" transform="translate(39,216)"/>
<path d="M0 0 C2 1 2 1 2 1 Z " fill="#00AAD4" transform="translate(33,212)"/>
<path d="M0 0 C2 1 2 1 2 1 Z " fill="#59E5E5" transform="translate(18,204)"/>
<path d="" fill="#00BFBF" transform="translate(0,0)"/>
<path d="M0 0 C2 1 2 1 2 1 Z " fill="#002AD4" transform="translate(136,189)"/>
<path d="M0 0 C2 1 2 1 2 1 Z " fill="#007F7F" transform="translate(138,188)"/>
<path d="M0 0 C2 1 2 1 2 1 Z " fill="#006A94" transform="translate(142,185)"/>
<path d="M0 0 C2 1 2 1 2 1 Z " fill="#00FFFF" transform="translate(123,183)"/>
<path d="M0 0 C2 1 2 1 2 1 Z " fill="#00BFDF" transform="translate(121,182)"/>
<path d="M0 0 C2 1 2 1 2 1 Z " fill="#006A6A" transform="translate(157,177)"/>
<path d="M0 0 C2 1 2 1 2 1 Z " fill="#00BFBF" transform="translate(112,177)"/>
<path d="M0 0 C2 1 2 1 2 1 Z " fill="#00BFBF" transform="translate(159,176)"/>
<path d="M0 0 C2 1 2 1 2 1 Z " fill="#00BFBF" transform="translate(110,176)"/>
<path d="M0 0 C2 1 2 1 2 1 Z " fill="#00BFBF" transform="translate(161,175)"/>
<path d="M0 0 C2 1 2 1 2 1 Z " fill="#00007F" transform="translate(163,174)"/>
<path d="M0 0 C2 1 2 1 2 1 Z " fill="#00AAAA" transform="translate(104,173)"/>
<path d="M0 0 C2 1 2 1 2 1 Z " fill="#007F7F" transform="translate(165,172)"/>
<path d="M0 0 C2 1 2 1 2 1 Z " fill="#00BFBF" transform="translate(62,172)"/>
<path d="M0 0 C2 1 2 1 2 1 Z " fill="#5F9F9F" transform="translate(64,171)"/>
<path d="M0 0 C2 1 2 1 2 1 Z " fill="#007F7F" transform="translate(99,170)"/>
<path d="M0 0 C2 1 2 1 2 1 Z " fill="#006A6A" transform="translate(97,169)"/>
<path d="M0 0 C2 1 2 1 2 1 Z " fill="#00AAAA" transform="translate(68,169)"/>
<path d="M0 0 C2 1 2 1 2 1 Z " fill="#003F3F" transform="translate(174,168)"/>
<path d="M0 0 C2 1 2 1 2 1 Z " fill="#005D77" transform="translate(95,168)"/>
<path d="M0 0 C2 1 2 1 2 1 Z " fill="#00BFBF" transform="translate(70,168)"/>
<path d="M0 0 C2 1 2 1 2 1 Z " fill="#007F9F" transform="translate(93,167)"/>
<path d="M0 0 C2 1 2 1 2 1 Z " fill="#007F7F" transform="translate(91,166)"/>
<path d="M0 0 C2 1 2 1 2 1 Z " fill="#007F7F" transform="translate(178,165)"/>
<path d="M0 0 C2 1 2 1 2 1 Z " fill="#00FFBF" transform="translate(75,165)"/>
<path d="M0 0 C2 1 2 1 2 1 Z " fill="#007F9F" transform="translate(180,164)"/>
<path d="M0 0 C2 1 2 1 2 1 Z " fill="#007790" transform="translate(182,163)"/>
<path d="M0 0 C2 1 2 1 2 1 Z " fill="#00BFBF" transform="translate(87,163)"/>
<path d="M0 0 C2 1 2 1 2 1 Z " fill="#007F7F" transform="translate(184,162)"/>
<path d="M0 0 C2 1 2 1 2 1 Z " fill="#55AAAA" transform="translate(81,162)"/>
<path d="M0 0 C2 1 2 1 2 1 Z " fill="#007FFF" transform="translate(186,161)"/>
<path d="M0 0 C2 1 2 1 2 1 Z " fill="#00BFBF" transform="translate(193,157)"/>
<path d="M0 0 C2 1 2 1 2 1 Z " fill="#007272" transform="translate(195,156)"/>
<path d="M0 0 C2 1 2 1 2 1 Z " fill="#00AAD4" transform="translate(197,155)"/>
<path d="M0 0 C2 1 2 1 2 1 Z " fill="#00D4D4" transform="translate(94,155)"/>
<path d="" fill="#007F7F" transform="translate(0,0)"/>
<path d="" fill="#007F7F" transform="translate(0,0)"/>
<path d="M0 0 C2 1 2 1 2 1 Z " fill="#007777" transform="translate(205,150)"/>
<path d="M0 0 C2 1 2 1 2 1 Z " fill="#008C8C" transform="translate(102,150)"/>
<path d="M0 0 C2 1 2 1 2 1 Z " fill="#007FDF" transform="translate(104,149)"/>
<path d="M0 0 C2 1 2 1 2 1 Z " fill="#009494" transform="translate(210,148)"/>
<path d="" fill="#007F7F" transform="translate(0,0)"/>
<path d="M0 0 C2 1 2 1 2 1 Z " fill="#00007F" transform="translate(212,147)"/>
<path d="M0 0 C2 1 2 1 2 1 Z " fill="#007FAA" transform="translate(117,142)"/>
<path d="" fill="#003F3F" transform="translate(0,0)"/>
<path d="M0 0 C2 1 2 1 2 1 Z " fill="#007F7F" transform="translate(119,141)"/>
<path d="M0 0 C2 1 2 1 2 1 Z " fill="#00FFFF" transform="translate(9,141)"/>
<path d="M0 0 C2 1 2 1 2 1 Z " fill="#6AFFFF" transform="translate(11,140)"/>
<path d="M0 0 C2 1 2 1 2 1 Z " fill="#00FFFF" transform="translate(123,138)"/>
<path d="M0 0 C2 1 2 1 2 1 Z " fill="#00FFFF" transform="translate(17,136)"/>
<path d="M0 0 C2 1 2 1 2 1 Z " fill="#2AD4D4" transform="translate(19,135)"/>
<path d="M0 0 C2 1 2 1 2 1 Z " fill="#00FFFF" transform="translate(21,134)"/>
<path d="M0 0 C2 1 2 1 2 1 Z " fill="#00BFBF" transform="translate(23,133)"/>
<path d="M0 0 C2 1 2 1 2 1 Z " fill="#00BFBF" transform="translate(25,132)"/>
<path d="M0 0 C2 1 2 1 2 1 Z " fill="#007F7F" transform="translate(142,123)"/>
<path d="M0 0 C2 1 2 1 2 1 Z " fill="#00FFFF" transform="translate(40,123)"/>
<path d="M0 0 C2 1 2 1 2 1 Z " fill="#00AAD4" transform="translate(144,122)"/>
<path d="M0 0 C2 1 2 1 2 1 Z " fill="#003F3F" transform="translate(125,122)"/>
<path d="M0 0 C2 1 2 1 2 1 Z " fill="#00FFFF" transform="translate(42,122)"/>
<path d="M0 0 C2 1 2 1 2 1 Z " fill="#00D4D4" transform="translate(123,121)"/>
<path d="M0 0 C2 1 2 1 2 1 Z " fill="#1F9F9F" transform="translate(44,121)"/>
<path d="M0 0 C2 1 2 1 2 1 Z " fill="#19B2B2" transform="translate(121,120)"/>
<path d="M0 0 C2 1 2 1 2 1 Z " fill="#00DFDF" transform="translate(119,119)"/>
<path d="M0 0 C2 1 2 1 2 1 Z " fill="#00BFBF" transform="translate(157,115)"/>
<path d="M0 0 C2 1 2 1 2 1 Z " fill="#007F9F" transform="translate(110,114)"/>
<path d="M0 0 C2 1 2 1 2 1 Z " fill="#009FDF" transform="translate(61,112)"/>
<path d="" fill="#000000" transform="translate(0,0)"/>
<path d="M0 0 C2 1 2 1 2 1 Z " fill="#00FFFF" transform="translate(65,109)"/>
<path d="M0 0 C2 1 2 1 2 1 Z " fill="#00BFBF" transform="translate(170,108)"/>
<path d="M0 0 C2 1 2 1 2 1 Z " fill="#0055D4" transform="translate(100,108)"/>
<path d="M0 0 C2 1 2 1 2 1 Z " fill="#2AD4D4" transform="translate(67,108)"/>
<path d="M0 0 C2 1 2 1 2 1 Z " fill="#00CCCC" transform="translate(98,107)"/>
<path d="M0 0 C2 1 2 1 2 1 Z " fill="#5FFFFF" transform="translate(69,107)"/>
<path d="M0 0 C2 1 2 1 2 1 Z " fill="#00D4D4" transform="translate(96,106)"/>
<path d="M0 0 C2 1 2 1 2 1 Z " fill="#009F9F" transform="translate(71,106)"/>
<path d="M0 0 C2 1 2 1 2 1 Z " fill="#00D4D4" transform="translate(73,105)"/>
<path d="M0 0 C2 1 2 1 2 1 Z " fill="#00D4D4" transform="translate(170,100)"/>
<path d="M0 0 C2 1 2 1 2 1 Z " fill="#007F7F" transform="translate(90,100)"/>
<path d="M0 0 C2 1 2 1 2 1 Z " fill="#002A2A" transform="translate(94,97)"/>
<path d="M0 0 C2 1 2 1 2 1 Z " fill="#006A8A" transform="translate(96,96)"/>
<path d="M0 0 C2 1 2 1 2 1 Z " fill="#008A8A" transform="translate(98,95)"/>
<path d="M0 0 C2 1 2 1 2 1 Z " fill="#007F9F" transform="translate(100,94)"/>
<path d="M0 0 C2 1 2 1 2 1 Z " fill="#00FFFF" transform="translate(157,93)"/>
<path d="M0 0 C2 1 2 1 2 1 Z " fill="#00FFFF" transform="translate(102,93)"/>
<path d="M0 0 C2 1 2 1 2 1 Z " fill="#00FFFF" transform="translate(153,90)"/>
<path d="M0 0 C2 1 2 1 2 1 Z " fill="#4AB4B4" transform="translate(151,89)"/>
<path d="M0 0 C2 1 2 1 2 1 Z " fill="#00FFFF" transform="translate(140,83)"/>
<path d="M0 0 C2 1 2 1 2 1 Z " fill="#006A94" transform="translate(119,83)"/>
<path d="M0 0 C2 1 2 1 2 1 Z " fill="#19E5E5" transform="translate(138,82)"/>
<path d="M0 0 C2 1 2 1 2 1 Z " fill="#19A1A1" transform="translate(136,81)"/>
<path d="M0 0 C2 1 2 1 2 1 Z " fill="#007F7F" transform="translate(123,81)"/>
<path d="M0 0 C2 1 2 1 2 1 Z " fill="#009494" transform="translate(134,80)"/>
<path d="M0 0 C2 1 2 1 2 1 Z " fill="#00BFBF" transform="translate(125,80)"/>
<path d="M0 0 C2 1 2 1 2 1 Z " fill="#003F3F" transform="translate(132,79)"/>
<path d="" fill="#00BFBF" transform="translate(0,0)"/>
<path d="M0 0 C2 1 2 1 2 1 Z " fill="#00FFFF" transform="translate(212,61)"/>
<path d="M0 0 C2 1 2 1 2 1 Z " fill="#2AFFFF" transform="translate(210,60)"/>
<path d="M0 0 C2 1 2 1 2 1 Z " fill="#00DFDF" transform="translate(208,59)"/>
<path d="M0 0 C2 1 2 1 2 1 Z " fill="#00BFBF" transform="translate(203,57)"/>
<path d="M0 0 C2 1 2 1 2 1 Z " fill="#007F7F" transform="translate(201,55)"/>
<path d="M0 0 C2 1 2 1 2 1 Z " fill="#00BFBF" transform="translate(199,54)"/>
<path d="M0 0 C2 1 2 1 2 1 Z " fill="#1FDFDF" transform="translate(197,53)"/>
<path d="M0 0 C2 1 2 1 2 1 Z " fill="#1FDFDF" transform="translate(184,46)"/>
<path d="M0 0 C2 1 2 1 2 1 Z " fill="#4AB4D4" transform="translate(182,45)"/>
<path d="M0 0 C2 1 2 1 2 1 Z " fill="#007F7F" transform="translate(176,41)"/>
<path d="M0 0 C2 1 2 1 2 1 Z " fill="#00D4D4" transform="translate(174,40)"/>
<path d="M0 0 C2 1 2 1 2 1 Z " fill="#2AFFFF" transform="translate(172,39)"/>
<path d="M0 0 C2 1 2 1 2 1 Z " fill="#3FBFBF" transform="translate(161,33)"/>
<path d="M0 0 C2 1 2 1 2 1 Z " fill="#1FBF9F" transform="translate(159,32)"/>
<path d="M0 0 C2 1 2 1 2 1 Z " fill="#1F9F9F" transform="translate(157,31)"/>
<path d="M0 0 C2 1 2 1 2 1 Z " fill="#00BFBF" transform="translate(150,27)"/>
<path d="M0 0 C2 1 2 1 2 1 Z " fill="#007F7F" transform="translate(148,26)"/>
<path d="M0 0 C2 1 2 1 2 1 Z " fill="#2AD4D4" transform="translate(146,25)"/>
<path d="M0 0 C2 1 2 1 2 1 Z " fill="#5FDFDF" transform="translate(144,24)"/>
<path d="M0 0 C2 1 2 1 2 1 Z " fill="#003F3F" transform="translate(91,23)"/>
<path d="M0 0 C2 1 2 1 2 1 Z " fill="#007F7F" transform="translate(137,20)"/>
<path d="M0 0 C2 1 2 1 2 1 Z " fill="#00BFBF" transform="translate(96,20)"/>
<path d="M0 0 C2 1 2 1 2 1 Z " fill="#1F9F9F" transform="translate(98,19)"/>
<path d="M0 0 C2 1 2 1 2 1 Z " fill="#1FDFDF" transform="translate(100,18)"/>
<path d="M0 0 C2 1 2 1 2 1 Z " fill="#1F7F7F" transform="translate(131,17)"/>
<path d="M0 0 C2 1 2 1 2 1 Z " fill="#00BFBF" transform="translate(124,13)"/>
<path d="M0 0 C2 1 2 1 2 1 Z " fill="#00BFBF" transform="translate(109,13)"/>
<path d="" fill="#007F7F" transform="translate(0,0)"/>
<path d="" fill="#007F7F" transform="translate(0,0)"/>
<path d="" fill="#000000" transform="translate(0,0)"/>
<path d="" fill="#00FFFF" transform="translate(0,0)"/>
<path d="" fill="#000000" transform="translate(0,0)"/>
<path d="" fill="#000000" transform="translate(0,0)"/>
<path d="" fill="#007F7F" transform="translate(0,0)"/>
<path d="" fill="#000000" transform="translate(0,0)"/>
<path d="" fill="#55D4AA" transform="translate(0,0)"/>
<path d="" fill="#00FFFF" transform="translate(0,0)"/>
<path d="" fill="#000000" transform="translate(0,0)"/>
<path d="" fill="#00FFFF" transform="translate(0,0)"/>
<path d="" fill="#000000" transform="translate(0,0)"/>
<path d="" fill="#000000" transform="translate(0,0)"/>
<path d="" fill="#00FFFF" transform="translate(0,0)"/>
<path d="" fill="#000000" transform="translate(0,0)"/>
<path d="" fill="#00FFFF" transform="translate(0,0)"/>
<path d="" fill="#00FFFF" transform="translate(0,0)"/>
<path d="" fill="#00FFFF" transform="translate(0,0)"/>
<path d="" fill="#007F7F" transform="translate(0,0)"/>
<path d="" fill="#000000" transform="translate(0,0)"/>
<path d="" fill="#000000" transform="translate(0,0)"/>
<path d="" fill="#007F7F" transform="translate(0,0)"/>
<path d="" fill="#000000" transform="translate(0,0)"/>
<path d="" fill="#007F7F" transform="translate(0,0)"/>
<path d="" fill="#007F7F" transform="translate(0,0)"/>
<path d="" fill="#005555" transform="translate(0,0)"/>
<path d="" fill="#00AAAA" transform="translate(0,0)"/>
<path d="" fill="#000000" transform="translate(0,0)"/>
<path d="" fill="#007F7F" transform="translate(0,0)"/>
<path d="" fill="#00FFFF" transform="translate(0,0)"/>
<path d="" fill="#00FFFF" transform="translate(0,0)"/>
<path d="" fill="#00FFFF" transform="translate(0,0)"/>
<path d="" fill="#0000FF" transform="translate(0,0)"/>
<path d="" fill="#00FFFF" transform="translate(0,0)"/>
<path d="" fill="#006699" transform="translate(0,0)"/>
<path d="" fill="#000000" transform="translate(0,0)"/>
<path d="" fill="#007F7F" transform="translate(0,0)"/>
<path d="" fill="#00FFFF" transform="translate(0,0)"/>
<path d="" fill="#00FFFF" transform="translate(0,0)"/>
<path d="" fill="#00FFFF" transform="translate(0,0)"/>
<path d="" fill="#00FFFF" transform="translate(0,0)"/>
<path d="" fill="#007F7F" transform="translate(0,0)"/>
<path d="" fill="#000000" transform="translate(0,0)"/>
<path d="" fill="#005555" transform="translate(0,0)"/>
<path d="" fill="#007F7F" transform="translate(0,0)"/>
<path d="" fill="#00FFFF" transform="translate(0,0)"/>
<path d="" fill="#00FFFF" transform="translate(0,0)"/>
<path d="" fill="#000000" transform="translate(0,0)"/>
<path d="" fill="#00FFFF" transform="translate(0,0)"/>
<path d="" fill="#00FFFF" transform="translate(0,0)"/>
<path d="" fill="#00FFFF" transform="translate(0,0)"/>
<path d="" fill="#0000FF" transform="translate(0,0)"/>
<path d="" fill="#00FFFF" transform="translate(0,0)"/>
<path d="" fill="#00FFFF" transform="translate(0,0)"/>
<path d="" fill="#00FFFF" transform="translate(0,0)"/>
</svg>
