<?xml version="1.0" encoding="UTF-8" standalone="no"?><!DOCTYPE svg PUBLIC "-//W3C//DTD SVG 1.1//EN" "http://www.w3.org/Graphics/SVG/1.1/DTD/svg11.dtd"><svg width="100%" height="100%" viewBox="0 0 8334 8334" version="1.1" xmlns="http://www.w3.org/2000/svg" xmlns:xlink="http://www.w3.org/1999/xlink" xml:space="preserve" xmlns:serif="http://www.serif.com/" style="fill-rule:evenodd;clip-rule:evenodd;stroke-linejoin:round;stroke-miterlimit:2;"><g><g><path d="M3115.429,3011.558l1449.15,-803.026c54.059,-28.489 93.317,-47.567 170.271,-26.294l-1324.932,-731.842c0,0 -235.616,-151.481 -286.37,-441.267c-1.245,-7.108 -2.379,-14.299 -3.395,-21.574c-2.089,-14.953 -3.682,-30.344 -4.725,-45.996c-0.355,-5.325 0,-14.302 0,-14.302l0,2084.301Z" style="fill:#008e99;"/><path d="M3115.271,5267.546l-0,2533.577l845.14,488.996c0,0 241.345,138.18 521.726,-79.636c196.119,-152.356 185.2,-460.971 185.2,-460.971l-9.492,-1615.348l-1542.574,-866.619Z" style="fill:#008a96;"/><path d="M3115.271,3093.203l-0,1902.575c-459.516,260.36 -866.69,489.246 -942.935,526.365c-189.534,92.273 -179.559,366.599 -179.559,366.599l0,1261.897c0,0 -1196.259,-691.3 -1376.615,-792.651c-194.458,-109.275 -204.497,-330.834 -204.497,-330.834l0,-1253.172c0,-189.534 249.387,-316.721 249.387,-316.721l2454.219,-1364.058Z" style="fill:#31c7c8;"/><path d="M3115.271,4995.778l0,-1902.575l0.158,-0.088c0,0 1226.573,705.765 1436.058,835.446c209.485,129.681 44.89,224.016 44.89,224.016c0,0 -798.331,456.343 -1481.105,843.2Z" style="fill:#018b96;"/><path d="M4211.953,-0l3264.985,1783.193c0,0 240.614,128.269 240.614,464.114c0,206.449 -164.11,299.358 -164.11,299.358l-1308.414,751.617c0,0 59.984,-98.202 -15.168,-258.25c-34.904,-74.334 -2775.435,-1556.722 -2775.435,-1556.722c0,0 -338.823,-199.167 -338.823,-568.309c0,-293.404 205.254,-399.994 205.254,-399.994l891.097,-515.007Z" style="fill:#33c9c9;"/><path d="M4701.987,6129.269l2811.676,-1606.491c0,0 88.626,-42.059 160.75,-96.798c48.713,-36.971 42.221,-203.802 42.221,-203.802l0.917,-1974.872c0,0 -0.081,202.219 -176.356,304.148c-64.526,37.311 -2825.442,1623.202 -2825.442,1623.202c-4.894,656.279 -16.981,1460.515 -13.766,1954.613Z" style="fill:#028c97;"/></g></g></svg>